<?xml version="1.0" standalone="no"?>
<!DOCTYPE svg PUBLIC "-//W3C//DTD SVG 20010904//EN"
 "http://www.w3.org/TR/2001/REC-SVG-20010904/DTD/svg10.dtd">
<svg version="1.0" xmlns="http://www.w3.org/2000/svg"
 width="450.000000pt" height="225.000000pt" viewBox="0 0 450.000000 225.000000"
 preserveAspectRatio="xMidYMid meet">
<metadata>
Created by potrace 1.10, written by Peter Selinger 2001-2011
</metadata>
<g transform="translate(0.000000,225.000000) scale(0.100000,-0.100000)"
fill="#ffffff" stroke="none">
<path d="M2930 1604 c-492 -40 -875 -102 -1340 -215 -270 -66 -671 -189 -719
-220 -13 -9 -12 -9 4 -4 76 25 362 104 525 145 434 109 856 181 1234 211 184
14 537 7 662 -15 384 -66 541 -235 434 -464 -40 -85 -187 -232 -320 -321 -127
-86 -128 -87 -24 -42 583 252 813 544 591 748 -129 119 -362 173 -767 178
-129 2 -255 1 -280 -1z"/>
<path d="M1908 1232 l-38 -3 0 -225 0 -224 40 0 40 0 0 84 0 83 40 6 c80 10
120 61 120 152 0 102 -60 140 -202 127z m110 -72 c17 -33 9 -126 -14 -151 -9
-10 -25 -19 -36 -19 -16 0 -18 9 -18 101 l0 100 27 -3 c17 -2 33 -13 41 -28z"/>
<path d="M2218 1233 l-38 -4 0 -225 0 -224 40 0 40 0 0 85 c0 84 0 85 25 85
83 0 135 60 135 155 0 63 -15 92 -55 113 -26 13 -99 21 -147 15z m110 -73 c18
-35 10 -124 -13 -150 -10 -11 -26 -20 -37 -20 -16 0 -18 9 -18 101 l0 100 27
-3 c17 -2 33 -13 41 -28z"/>
<path d="M1312 1208 c3 -21 8 -23 56 -22 28 1 52 -2 52 -7 0 -5 -27 -94 -60
-198 -33 -104 -60 -192 -60 -195 0 -3 50 -6 111 -6 109 0 110 0 107 23 -3 20
-7 22 -60 19 -32 -2 -58 0 -58 4 0 4 27 94 60 200 33 105 60 195 60 198 0 3
-48 6 -106 6 -104 0 -105 0 -102 -22z"/>
<path d="M1600 1005 l0 -225 96 0 c93 0 95 1 92 23 -3 20 -8 22 -55 19 l-53
-3 0 90 0 91 45 0 c38 0 45 3 45 20 0 17 -7 20 -45 20 l-45 0 0 76 0 75 53 -3
c47 -3 52 -1 55 20 3 21 1 22 -92 22 l-96 0 0 -225z"/>
<path d="M2490 1005 l0 -225 95 0 c88 0 95 1 95 20 0 22 -5 24 -68 20 l-43 -2
3 89 3 88 48 3 c39 3 47 6 47 23 0 16 -7 19 -50 19 l-50 0 0 76 0 76 53 -4
c48 -3 52 -1 55 20 3 21 1 22 -92 22 l-96 0 0 -225z"/>
<path d="M2760 1005 l0 -225 90 0 c90 0 90 0 90 25 0 25 -1 26 -50 19 l-50 -7
0 207 0 206 -40 0 -40 0 0 -225z"/>
<path d="M3010 1005 l0 -225 45 0 45 0 0 225 0 225 -45 0 -45 0 0 -225z"/>
<path d="M3190 1005 c0 -218 1 -225 20 -225 19 0 20 7 21 163 l0 162 61 -162
60 -163 34 0 34 0 0 225 0 225 -25 0 -25 0 0 -137 -1 -138 -52 138 -52 137
-37 0 -38 0 0 -225z"/>
<path d="M530 1150 c0 -5 7 -10 15 -10 12 0 15 -17 15 -95 0 -88 1 -95 20 -95
19 0 20 7 20 95 0 78 3 95 15 95 8 0 15 5 15 10 0 6 -22 10 -50 10 -27 0 -50
-4 -50 -10z"/>
<path d="M899 1108 c-9 -15 -13 -46 -11 -86 3 -56 6 -64 28 -74 18 -9 27 -9
36 0 8 8 7 13 -5 18 -25 9 -24 111 1 117 16 4 16 5 0 6 -11 1 -18 9 -18 21 0
27 -14 25 -31 -2z"/>
<path d="M1211 1106 c-14 -15 -19 -26 -12 -31 6 -3 11 -30 11 -59 0 -56 17
-83 45 -72 18 7 20 27 3 24 -9 -2 -14 14 -16 47 -3 38 1 52 14 62 10 7 12 13
6 13 -7 0 -16 9 -20 20 -8 20 -8 20 -31 -4z"/>
<path d="M654 1086 c-28 -21 -27 -112 1 -132 24 -17 57 -15 63 5 3 9 0 12 -10
8 -19 -7 -38 11 -38 35 0 13 8 18 30 18 25 0 30 4 30 24 0 26 -23 56 -44 56
-7 0 -21 -6 -32 -14z m43 -40 c-4 -9 -11 -16 -17 -16 -11 0 -14 33 -3 44 11
10 26 -11 20 -28z"/>
<path d="M772 1088 c-13 -13 -16 -38 -6 -38 4 0 13 8 20 18 12 15 15 15 24 2
15 -23 12 -30 -17 -41 -44 -17 -55 -46 -27 -73 8 -9 21 -13 27 -9 6 4 23 6 37
5 25 -2 25 -1 22 61 -2 34 -9 68 -14 75 -13 15 -50 16 -66 0z m45 -102 c-4 -9
-11 -16 -17 -16 -11 0 -14 33 -3 44 11 10 26 -11 20 -28z"/>
<path d="M987 1093 c-4 -3 -7 -37 -7 -75 0 -61 2 -68 20 -68 18 0 20 7 20 55
0 42 3 55 15 55 8 0 15 9 15 20 0 23 -10 26 -28 8 -9 -9 -12 -9 -12 0 0 13
-13 16 -23 5z"/>
<path d="M1090 1080 c-13 -13 -20 -33 -20 -60 0 -38 26 -80 49 -80 18 0 41 12
41 22 0 6 -7 8 -15 4 -17 -6 -48 21 -42 38 2 6 18 12 35 14 36 4 42 24 16 60
-19 27 -38 28 -64 2z m44 -17 c8 -21 -10 -41 -24 -27 -11 11 -3 44 10 44 4 0
11 -8 14 -17z"/>
</g>
</svg>
